<svg width="1170" height="234" viewBox="0 0 1170 234" fill="none" xmlns="http://www.w3.org/2000/svg">
<path d="M97.7326 177.003L194.688 9.07123L236.671 33.3101L139.716 201.242M97.7326 177.003L96.9091 226.907L139.716 201.242M97.7326 177.003L139.716 201.242M175.297 42.6576L217.28 66.8966" stroke="#F7F8FC" stroke-width="13.7116" stroke-linecap="round" stroke-linejoin="round"/>
<path d="M44.6847 70.0001L7 113.966L44.6847 157.931" stroke="#F7F8FC" stroke-width="13.2219" stroke-linecap="round" stroke-linejoin="round"/>
<path d="M263.838 157.931L301.523 113.966L263.838 70.0001" stroke="#F7F8FC" stroke-width="13.2219" stroke-linecap="round" stroke-linejoin="round"/>
<path d="M358.234 172V51.6875H380.656V151.531H421.125V172H358.234ZM491.828 81.6094V172H471.281V163.016C469.146 166.766 466.464 169.604 463.234 171.531C460.057 173.458 456.411 174.422 452.297 174.422C445.734 174.422 440.734 172.573 437.297 168.875C433.859 165.125 432.141 159.708 432.141 152.625V81.6094H452.297V140.672C452.297 146.661 452.974 150.802 454.328 153.094C455.682 155.333 457.974 156.453 461.203 156.453C464.745 156.453 467.219 155.203 468.625 152.703C470.083 150.203 470.812 145.75 470.812 139.344V81.6094H491.828ZM566.906 136.531C566.958 137.156 566.984 137.833 566.984 138.562C567.036 139.24 567.062 140.255 567.062 141.609C567.062 152.807 564.667 161.089 559.875 166.453C555.135 171.766 547.766 174.422 537.766 174.422C526.411 174.422 518.469 171.062 513.938 164.344C509.458 157.625 507.219 145.125 507.219 126.844C507.219 108.615 509.458 96.1146 513.938 89.3438C518.469 82.5729 526.411 79.1875 537.766 79.1875C547.714 79.1875 555.057 81.6615 559.797 86.6094C564.536 91.5573 566.906 99.2135 566.906 109.578V112.781H546.906V110.75C546.906 105.281 546.203 101.349 544.797 98.9531C543.391 96.5573 541.099 95.3594 537.922 95.3594C534.693 95.3594 532.349 96.5312 530.891 98.875C529.484 101.219 528.781 105.125 528.781 110.594V141.766C528.781 147.964 529.458 152.286 530.812 154.734C532.167 157.182 534.484 158.406 537.766 158.406C541.307 158.406 543.755 157 545.109 154.188C546.516 151.375 547.219 146.115 547.219 138.406V136.453L566.906 136.531ZM622.453 124.656C614.589 128.615 609.25 132.156 606.438 135.281C603.677 138.406 602.297 142.104 602.297 146.375C602.297 150.385 603.026 153.354 604.484 155.281C605.995 157.156 608.339 158.094 611.516 158.094C615.161 158.094 617.896 156.505 619.719 153.328C621.542 150.151 622.453 145.385 622.453 139.031V124.656ZM625.344 172C624.875 171.323 624.458 170.307 624.094 168.953C623.781 167.599 623.443 165.698 623.078 163.25C620.891 166.896 618.052 169.682 614.562 171.609C611.125 173.484 607.089 174.422 602.453 174.422C595.578 174.422 590.214 172.104 586.359 167.469C582.557 162.833 580.656 156.401 580.656 148.172C580.656 140.724 582.323 134.812 585.656 130.438C589.042 126.01 595.708 121.583 605.656 117.156C606.646 116.688 608.052 116.062 609.875 115.281C618.052 111.792 622.141 107.703 622.141 103.016C622.141 100.151 621.333 97.9635 619.719 96.4531C618.156 94.8906 615.865 94.1094 612.844 94.1094C609.042 94.1094 606.229 95.125 604.406 97.1562C602.635 99.1875 601.75 102.365 601.75 106.688V108.484H581.438C581.438 98.3281 583.911 90.9323 588.859 86.2969C593.859 81.6615 601.854 79.3438 612.844 79.3438C623.833 79.3438 631.542 81.4792 635.969 85.75C640.396 89.9688 642.609 97.3906 642.609 108.016V159.031C642.609 161.531 642.844 163.823 643.312 165.906C643.781 167.938 644.562 169.969 645.656 172H625.344ZM657.062 141.922H675.891V144.5C675.891 149.708 676.672 153.406 678.234 155.594C679.849 157.781 682.505 158.875 686.203 158.875C689.12 158.875 691.411 158.094 693.078 156.531C694.745 154.969 695.578 152.807 695.578 150.047C695.578 146.609 692.219 142.651 685.5 138.172C683.781 137.026 682.453 136.141 681.516 135.516C681.307 135.359 680.969 135.125 680.5 134.812C665.188 124.292 657.531 113.979 657.531 103.875C657.531 95.8542 660.005 89.7344 664.953 85.5156C669.953 81.2969 677.193 79.1875 686.672 79.1875C695.839 79.1875 702.714 81.5312 707.297 86.2188C711.88 90.8542 714.172 97.9115 714.172 107.391V109.266H695.734V107.391C695.734 103.016 694.901 99.8125 693.234 97.7812C691.568 95.75 688.938 94.7344 685.344 94.7344C682.74 94.7344 680.656 95.4635 679.094 96.9219C677.531 98.3281 676.75 100.203 676.75 102.547C676.75 104.734 677.427 106.714 678.781 108.484C680.188 110.255 683.286 112.755 688.078 115.984C689.172 116.714 690.76 117.781 692.844 119.188C708 129.188 715.578 139.214 715.578 149.266C715.578 157.286 713 163.484 707.844 167.859C702.74 172.234 695.448 174.422 685.969 174.422C676.021 174.422 668.677 172.078 663.938 167.391C659.25 162.703 656.906 155.385 656.906 145.438C656.906 145.073 656.932 144.5 656.984 143.719C657.036 142.938 657.062 142.339 657.062 141.922ZM771.828 172V51.6875H794.094V98.875H824.797V51.6875H847.062V172H824.797V117.469H794.094V172H771.828ZM885.344 115.359H905.656V111.531C905.656 105.333 904.901 101.062 903.391 98.7188C901.88 96.375 899.224 95.2031 895.422 95.2031C891.724 95.2031 889.094 96.4271 887.531 98.875C885.969 101.271 885.188 105.49 885.188 111.531C885.188 111.531 885.214 111.974 885.266 112.859C885.318 113.693 885.344 114.526 885.344 115.359ZM906.359 140.984H926.047C926.047 141.401 926.073 142 926.125 142.781C926.177 143.562 926.203 144.135 926.203 144.5C926.203 154.812 923.729 162.391 918.781 167.234C913.885 172.026 906.099 174.422 895.422 174.422C889.797 174.422 885.083 173.719 881.281 172.312C877.479 170.906 874.354 168.719 871.906 165.75C868.99 162.26 866.932 157.859 865.734 152.547C864.536 147.234 863.938 137.677 863.938 123.875C863.938 112.885 864.458 105.021 865.5 100.281C866.542 95.5417 868.312 91.6615 870.812 88.6406C873.417 85.5156 876.802 83.1719 880.969 81.6094C885.188 79.9948 890.188 79.1875 895.969 79.1875C901.542 79.1875 906.333 80.0469 910.344 81.7656C914.406 83.4323 917.766 85.9844 920.422 89.4219C922.661 92.4427 924.25 96.2448 925.188 100.828C926.177 105.359 926.672 112.703 926.672 122.859V129.734H885.578C885.474 130.411 885.396 131.141 885.344 131.922C885.344 132.651 885.344 133.849 885.344 135.516C885.344 144.109 886.125 150.125 887.688 153.562C889.302 157 892.01 158.719 895.812 158.719C899.51 158.719 902.193 157.339 903.859 154.578C905.526 151.766 906.359 147.234 906.359 140.984ZM942.922 172V81.6094H962.922V96.2969C965.786 90.2031 968.833 85.8542 972.062 83.25C975.344 80.6458 979.328 79.3177 984.016 79.2656V104.656C983.234 104.552 982.453 104.474 981.672 104.422C980.891 104.37 979.927 104.344 978.781 104.344C974.302 104.344 970.734 105.672 968.078 108.328C965.474 110.984 964.172 114.552 964.172 119.031V172H942.922ZM996.672 70.4375V51.6875H1017.45V70.4375H996.672ZM996.672 172V81.6094H1017.45V172H996.672ZM1092.53 136.531C1092.58 137.156 1092.61 137.833 1092.61 138.562C1092.66 139.24 1092.69 140.255 1092.69 141.609C1092.69 152.807 1090.29 161.089 1085.5 166.453C1080.76 171.766 1073.39 174.422 1063.39 174.422C1052.04 174.422 1044.09 171.062 1039.56 164.344C1035.08 157.625 1032.84 145.125 1032.84 126.844C1032.84 108.615 1035.08 96.1146 1039.56 89.3438C1044.09 82.5729 1052.04 79.1875 1063.39 79.1875C1073.34 79.1875 1080.68 81.6615 1085.42 86.6094C1090.16 91.5573 1092.53 99.2135 1092.53 109.578V112.781H1072.53V110.75C1072.53 105.281 1071.83 101.349 1070.42 98.9531C1069.02 96.5573 1066.72 95.3594 1063.55 95.3594C1060.32 95.3594 1057.97 96.5312 1056.52 98.875C1055.11 101.219 1054.41 105.125 1054.41 110.594V141.766C1054.41 147.964 1055.08 152.286 1056.44 154.734C1057.79 157.182 1060.11 158.406 1063.39 158.406C1066.93 158.406 1069.38 157 1070.73 154.188C1072.14 151.375 1072.84 146.115 1072.84 138.406V136.453L1092.53 136.531ZM1108.23 172V51.6875H1128.55V114.578L1147.22 81.6094H1169.17L1146.59 116.141L1169.48 172H1146.75L1133.62 135.828L1128.55 143.875V172H1108.23Z" fill="#F7F8FC"/>
</svg>
