<svg width="1170" height="234" viewBox="0 0 1170 234" fill="none" xmlns="http://www.w3.org/2000/svg">
<path d="M97.7326 176.804L194.688 8.87201L236.671 33.1109L139.716 201.043M97.7326 176.804L96.9091 226.708L139.716 201.043M97.7326 176.804L139.716 201.043M175.297 42.4584L217.28 66.6973" stroke="#222222" stroke-width="13.7116" stroke-linecap="round" stroke-linejoin="round"/>
<path d="M44.6847 69.8008L7 113.766L44.6847 157.732" stroke="#222222" stroke-width="13.2219" stroke-linecap="round" stroke-linejoin="round"/>
<path d="M263.838 157.732L301.523 113.766L263.838 69.8009" stroke="#222222" stroke-width="13.2219" stroke-linecap="round" stroke-linejoin="round"/>
<path d="M358.234 171.801V51.4883H380.656V151.332H421.125V171.801H358.234ZM491.828 81.4102V171.801H471.281V162.816C469.146 166.566 466.464 169.405 463.234 171.332C460.057 173.259 456.411 174.223 452.297 174.223C445.734 174.223 440.734 172.374 437.297 168.676C433.859 164.926 432.141 159.509 432.141 152.426V81.4102H452.297V140.473C452.297 146.462 452.974 150.603 454.328 152.895C455.682 155.134 457.974 156.254 461.203 156.254C464.745 156.254 467.219 155.004 468.625 152.504C470.083 150.004 470.812 145.551 470.812 139.145V81.4102H491.828ZM566.906 136.332C566.958 136.957 566.984 137.634 566.984 138.363C567.036 139.04 567.062 140.056 567.062 141.41C567.062 152.608 564.667 160.889 559.875 166.254C555.135 171.566 547.766 174.223 537.766 174.223C526.411 174.223 518.469 170.863 513.938 164.145C509.458 157.426 507.219 144.926 507.219 126.645C507.219 108.415 509.458 95.9154 513.938 89.1445C518.469 82.3737 526.411 78.9883 537.766 78.9883C547.714 78.9883 555.057 81.4622 559.797 86.4102C564.536 91.3581 566.906 99.0143 566.906 109.379V112.582H546.906V110.551C546.906 105.082 546.203 101.15 544.797 98.7539C543.391 96.3581 541.099 95.1602 537.922 95.1602C534.693 95.1602 532.349 96.332 530.891 98.6758C529.484 101.02 528.781 104.926 528.781 110.395V141.566C528.781 147.764 529.458 152.087 530.812 154.535C532.167 156.983 534.484 158.207 537.766 158.207C541.307 158.207 543.755 156.801 545.109 153.988C546.516 151.176 547.219 145.915 547.219 138.207V136.254L566.906 136.332ZM622.453 124.457C614.589 128.415 609.25 131.957 606.438 135.082C603.677 138.207 602.297 141.905 602.297 146.176C602.297 150.186 603.026 153.155 604.484 155.082C605.995 156.957 608.339 157.895 611.516 157.895C615.161 157.895 617.896 156.306 619.719 153.129C621.542 149.952 622.453 145.186 622.453 138.832V124.457ZM625.344 171.801C624.875 171.124 624.458 170.108 624.094 168.754C623.781 167.4 623.443 165.499 623.078 163.051C620.891 166.697 618.052 169.483 614.562 171.41C611.125 173.285 607.089 174.223 602.453 174.223C595.578 174.223 590.214 171.905 586.359 167.27C582.557 162.634 580.656 156.202 580.656 147.973C580.656 140.525 582.323 134.613 585.656 130.238C589.042 125.811 595.708 121.384 605.656 116.957C606.646 116.488 608.052 115.863 609.875 115.082C618.052 111.592 622.141 107.504 622.141 102.816C622.141 99.9518 621.333 97.7643 619.719 96.2539C618.156 94.6914 615.865 93.9102 612.844 93.9102C609.042 93.9102 606.229 94.9258 604.406 96.957C602.635 98.9883 601.75 102.165 601.75 106.488V108.285H581.438C581.438 98.1289 583.911 90.7331 588.859 86.0977C593.859 81.4622 601.854 79.1445 612.844 79.1445C623.833 79.1445 631.542 81.2799 635.969 85.5508C640.396 89.7695 642.609 97.1914 642.609 107.816V158.832C642.609 161.332 642.844 163.624 643.312 165.707C643.781 167.738 644.562 169.77 645.656 171.801H625.344ZM657.062 141.723H675.891V144.301C675.891 149.509 676.672 153.207 678.234 155.395C679.849 157.582 682.505 158.676 686.203 158.676C689.12 158.676 691.411 157.895 693.078 156.332C694.745 154.77 695.578 152.608 695.578 149.848C695.578 146.41 692.219 142.452 685.5 137.973C683.781 136.827 682.453 135.941 681.516 135.316C681.307 135.16 680.969 134.926 680.5 134.613C665.188 124.092 657.531 113.78 657.531 103.676C657.531 95.6549 660.005 89.5352 664.953 85.3164C669.953 81.0977 677.193 78.9883 686.672 78.9883C695.839 78.9883 702.714 81.332 707.297 86.0195C711.88 90.6549 714.172 97.7122 714.172 107.191V109.066H695.734V107.191C695.734 102.816 694.901 99.6133 693.234 97.582C691.568 95.5508 688.938 94.5352 685.344 94.5352C682.74 94.5352 680.656 95.2643 679.094 96.7227C677.531 98.1289 676.75 100.004 676.75 102.348C676.75 104.535 677.427 106.514 678.781 108.285C680.188 110.056 683.286 112.556 688.078 115.785C689.172 116.514 690.76 117.582 692.844 118.988C708 128.988 715.578 139.014 715.578 149.066C715.578 157.087 713 163.285 707.844 167.66C702.74 172.035 695.448 174.223 685.969 174.223C676.021 174.223 668.677 171.879 663.938 167.191C659.25 162.504 656.906 155.186 656.906 145.238C656.906 144.874 656.932 144.301 656.984 143.52C657.036 142.738 657.062 142.139 657.062 141.723ZM771.828 171.801V51.4883H794.094V98.6758H824.797V51.4883H847.062V171.801H824.797V117.27H794.094V171.801H771.828ZM885.344 115.16H905.656V111.332C905.656 105.134 904.901 100.863 903.391 98.5195C901.88 96.1758 899.224 95.0039 895.422 95.0039C891.724 95.0039 889.094 96.2279 887.531 98.6758C885.969 101.072 885.188 105.29 885.188 111.332C885.188 111.332 885.214 111.775 885.266 112.66C885.318 113.493 885.344 114.327 885.344 115.16ZM906.359 140.785H926.047C926.047 141.202 926.073 141.801 926.125 142.582C926.177 143.363 926.203 143.936 926.203 144.301C926.203 154.613 923.729 162.191 918.781 167.035C913.885 171.827 906.099 174.223 895.422 174.223C889.797 174.223 885.083 173.52 881.281 172.113C877.479 170.707 874.354 168.52 871.906 165.551C868.99 162.061 866.932 157.66 865.734 152.348C864.536 147.035 863.938 137.478 863.938 123.676C863.938 112.686 864.458 104.822 865.5 100.082C866.542 95.3424 868.312 91.4622 870.812 88.4414C873.417 85.3164 876.802 82.9727 880.969 81.4102C885.188 79.7956 890.188 78.9883 895.969 78.9883C901.542 78.9883 906.333 79.8477 910.344 81.5664C914.406 83.2331 917.766 85.7852 920.422 89.2227C922.661 92.2435 924.25 96.0456 925.188 100.629C926.177 105.16 926.672 112.504 926.672 122.66V129.535H885.578C885.474 130.212 885.396 130.941 885.344 131.723C885.344 132.452 885.344 133.65 885.344 135.316C885.344 143.91 886.125 149.926 887.688 153.363C889.302 156.801 892.01 158.52 895.812 158.52C899.51 158.52 902.193 157.139 903.859 154.379C905.526 151.566 906.359 147.035 906.359 140.785ZM942.922 171.801V81.4102H962.922V96.0977C965.786 90.0039 968.833 85.6549 972.062 83.0508C975.344 80.4466 979.328 79.1185 984.016 79.0664V104.457C983.234 104.353 982.453 104.275 981.672 104.223C980.891 104.171 979.927 104.145 978.781 104.145C974.302 104.145 970.734 105.473 968.078 108.129C965.474 110.785 964.172 114.353 964.172 118.832V171.801H942.922ZM996.672 70.2383V51.4883H1017.45V70.2383H996.672ZM996.672 171.801V81.4102H1017.45V171.801H996.672ZM1092.53 136.332C1092.58 136.957 1092.61 137.634 1092.61 138.363C1092.66 139.04 1092.69 140.056 1092.69 141.41C1092.69 152.608 1090.29 160.889 1085.5 166.254C1080.76 171.566 1073.39 174.223 1063.39 174.223C1052.04 174.223 1044.09 170.863 1039.56 164.145C1035.08 157.426 1032.84 144.926 1032.84 126.645C1032.84 108.415 1035.08 95.9154 1039.56 89.1445C1044.09 82.3737 1052.04 78.9883 1063.39 78.9883C1073.34 78.9883 1080.68 81.4622 1085.42 86.4102C1090.16 91.3581 1092.53 99.0143 1092.53 109.379V112.582H1072.53V110.551C1072.53 105.082 1071.83 101.15 1070.42 98.7539C1069.02 96.3581 1066.72 95.1602 1063.55 95.1602C1060.32 95.1602 1057.97 96.332 1056.52 98.6758C1055.11 101.02 1054.41 104.926 1054.41 110.395V141.566C1054.41 147.764 1055.08 152.087 1056.44 154.535C1057.79 156.983 1060.11 158.207 1063.39 158.207C1066.93 158.207 1069.38 156.801 1070.73 153.988C1072.14 151.176 1072.84 145.915 1072.84 138.207V136.254L1092.53 136.332ZM1108.23 171.801V51.4883H1128.55V114.379L1147.22 81.4102H1169.17L1146.59 115.941L1169.48 171.801H1146.75L1133.62 135.629L1128.55 143.676V171.801H1108.23Z" fill="#222222"/>
</svg>
