<svg width="36" height="36" viewBox="0 0 139 139" fill="none" xmlns="http://www.w3.org/2000/svg">
<path d="M0 0H138.576V138.576H0V0Z" fill="white" fill-opacity="0.01"/>
<path d="M51.966 17.322H23.096C19.9071 17.322 17.322 19.9071 17.322 23.096V51.966C17.322 55.1549 19.9071 57.74 23.096 57.74H51.966C55.1549 57.74 57.74 55.1549 57.74 51.966V23.096C57.74 19.9071 55.1549 17.322 51.966 17.322Z" fill="#95E4D1" stroke="black" stroke-width="5" stroke-linejoin="round"/>
<path d="M51.966 80.8359H23.096C19.9071 80.8359 17.322 83.421 17.322 86.6099V115.48C17.322 118.669 19.9071 121.254 23.096 121.254H51.966C55.1549 121.254 57.74 118.669 57.74 115.48V86.6099C57.74 83.421 55.1549 80.8359 51.966 80.8359Z" fill="#95E4D1" stroke="black" stroke-width="5" stroke-linejoin="round"/>
<path d="M115.48 17.322H86.6099C83.421 17.322 80.8359 19.9071 80.8359 23.096V51.966C80.8359 55.1549 83.421 57.74 86.6099 57.74H115.48C118.669 57.74 121.254 55.1549 121.254 51.966V23.096C121.254 19.9071 118.669 17.322 115.48 17.322Z" fill="#95E4D1" stroke="black" stroke-width="5" stroke-linejoin="round"/>
<path d="M115.48 80.8359H86.6099C83.421 80.8359 80.8359 83.421 80.8359 86.6099V115.48C80.8359 118.669 83.421 121.254 86.6099 121.254H115.48C118.669 121.254 121.254 118.669 121.254 115.48V86.6099C121.254 83.421 118.669 80.8359 115.48 80.8359Z" fill="#95E4D1" stroke="black" stroke-width="5" stroke-linejoin="round"/>
</svg>
