<svg width="1434" height="82" xmlns="http://www.w3.org/2000/svg">
  <g id="Artboard-Copy" stroke="none" stroke-width="1" fill="none" fill-rule="evenodd" stroke-linecap="round">
    <g id="waveform-3-o" transform="translate(3 -77)" stroke="#EEE8D5" stroke-width="7.129">
      <g id="Group">
        <path d="M1.436 45.419v68.162m14.257-75.965v83.768M29.95 10.837v137.326M44.208 34.38v90.24M58.465 13.9v131.2M72.723 17.813v123.374M86.98 32.944v93.112M101.238 15.44v128.12m14.257-116.633v105.146m14.257-101.475v97.804m14.258-97.987v98.17m14.257-87.005v75.84m14.258-88.374v100.908M186.782.839V158.16M201.04 41.962v75.076m14.257-85.851v96.626m14.257-116.591v136.556m14.258-125.053v113.55m14.258-84.407v55.264m14.257-60.988v66.712m14.257-76.041v85.37m14.258-82.212v79.054m14.257-81.09v83.126m14.257-71.364V109.3m14.258-53.834v48.068m14.257-25.323v2.578m14.258-27.777v52.976m14.257-48.567v44.158m14.258-81.212v118.266m14.257-126.968v135.67m14.257-133.528v131.386m14.258-132.875v134.364m14.257-105.745v77.126m14.257-75.866v74.606m14.258-76.595v78.584m14.258-65.217v51.85m14.257-67.085v82.32m14.257-82.293v82.266m14.258-89.42v96.574m14.257-91.816v87.058m14.258-99.888v112.718M585.99 35.818v87.364m14.258-72.192v57.02m14.257-71.718v86.416m14.257-93.236v100.056m14.258-96.1v92.144m14.257-95.244v98.344m14.258-98.477v98.61m14.257-83.687v68.764m14.258-76.187v83.61m14.257-86.959v90.308m14.257-87.138v83.968m14.258-86.638v89.308m14.258-71.05v52.792m14.257-59.2v65.608m14.257-80.958v96.308m14.257-94.982v93.656m14.258-81.156v68.656m14.257-58.818v48.98m14.258-44.77v40.56m14.257-51.14v61.72m14.258-64.273v66.826m14.257-69.416v72.006m14.257-66.638v61.27M913.91 44.09v70.82m14.258-54.174v37.528m14.258-32.402v27.276m14.257-37.61v47.944m14.257-70.371V125.9m14.258-97.867v102.934m14.257-73.851v44.768m14.258-50.353v55.938m14.257-49.813v43.688m14.258-35.786v27.884m14.257-33.338v38.792m14.258-41.156v43.52M1085 77.974v3.052m14.257-5.979v8.906m14.258-5.806v2.706M1127.772 78v3m14.258-6.877v10.754m14.257-33.052v55.35m14.258-59.827v64.304m14.257-56.328v48.352m14.258-63.798v79.244m14.257-72.38v65.516m14.257-80.394v95.272m14.258-63.901v32.53m14.258-75.434V138.67m14.257-99.474v80.608m14.257-73.987v67.366m14.257-51.495v35.624m14.258-53.59v71.556m14.257-76.996v82.436m14.258-79.127v75.818m14.257-74.139v72.46m14.258-68.585v64.71m14.257-72.616v80.522m14.257-72.496v64.47m14.257-72.985v81.5m14.258-73.145v64.79" id="Shape"/>
      </g>
    </g>
  </g>
</svg>
